<?xml version="1.0" encoding="utf-8"?>
<!-- Generator: Adobe Illustrator 22.1.0, SVG Export Plug-In . SVG Version: 6.00 Build 0)  -->
<svg version="1.1" xmlns="http://www.w3.org/2000/svg" xmlns:xlink="http://www.w3.org/1999/xlink" x="0px" y="0px"
	 viewBox="0 0 64 22" style="enable-background:new 0 0 64 22;" xml:space="preserve">
<style type="text/css">
	.st0{fill:#FFFFFF;}
</style>
<g id="Layer_1">
</g>
<g id="Layer_2">
	<g>
		<path class="st0" d="M11.3,11.2C11,9.3,9.7,8.3,7.8,8.3C6,8.3,3.5,9.2,3.5,14c0,2.6,1.1,5.3,4.1,5.3c2,0,3.4-1.3,3.7-3.5h3.4
			c-0.6,4-3.1,6.2-7.1,6.2c-4.9,0-7.5-3.4-7.5-8c0-4.7,2.5-8.3,7.6-8.3c3.6,0,6.7,1.8,7,5.6H11.3z"/>
		<path class="st0" d="M17.6,0.1H21v3.2h-3.4V0.1z M17.6,6H21v15.5h-3.4V6z"/>
		<path class="st0" d="M24.8,0.1h3.4v21.4h-3.4V0.1z"/>
		<path class="st0" d="M31.3,13.8c0-4.7,2.8-8.2,7.8-8.2c5,0,7.8,3.4,7.8,8.2c0,4.8-2.8,8.2-7.8,8.2C34.1,22,31.3,18.5,31.3,13.8z
			 M43.5,13.8c0-2.7-1.3-5.5-4.4-5.5c-3.1,0-4.4,2.8-4.4,5.5c0,2.7,1.3,5.5,4.4,5.5C42.2,19.3,43.5,16.5,43.5,13.8z"/>
		<path class="st0" d="M52.4,14.7c0,2.4,1.3,4.6,4.2,4.6c2,0,3.2-0.9,3.8-2.6h3.2c-0.8,3.4-3.6,5.3-7,5.3c-4.9,0-7.6-3.4-7.6-8.2
			c0-4.4,2.9-8.2,7.5-8.2c4.9,0,7.9,4.4,7.3,9.1H52.4z M60.4,12.4c-0.1-2.2-1.6-4.1-3.9-4.1c-2.4,0-4,1.8-4.1,4.1H60.4z"/>
	</g>
</g>
<g id="Layer_3">
</g>
</svg>
